<svg width="128" height="128" viewBox="0 0 128 128" xmlns="http://www.w3.org/2000/svg">
  <path d="M101.569 62.523c0-.164 0-.164 0 0-.166-.164-.166-.164-.166-.328L78.13 39.22c-.998-.985-2.494-.985-3.491 0-.997.984-.997 2.461 0 3.446l18.95 18.707H27.263c-1.33 0-2.493 1.15-2.493 2.462 0 1.313 1.164 2.461 2.493 2.461H93.59L74.639 85.17c-.997.985-.997 2.462 0 3.446.997.985 2.493.985 3.49 0l23.274-22.974.166-.164s.166 0 .166-.164c.831-.657.831-1.97-.166-2.79z" />
  <path fill-rule="evenodd" clip-rule="evenodd" d="M0 64C0 29.374 28.592 1.313 63.501 1.313c35.076 0 63.668 28.061 63.502 62.687 0 34.626-28.426 62.687-63.502 62.687C28.426 126.687 0 98.626 0 64zm4.987 0c0 31.836 26.265 57.764 58.514 57.764 32.416 0 58.681-25.928 58.515-57.764 0-31.836-26.265-57.764-58.515-57.764S4.987 32.164 4.987 64z" />
</svg>
