<svg width="128" height="128" viewBox="0 0 128 128" xmlns="http://www.w3.org/2000/svg">
  <path d="M3.016 63.856C3.131 29.536 30.84 1.828 64.986 2c34.204.172 61.568 27.938 61.395 62.372-.172 34.147-27.996 61.912-61.912 61.625C30.322 125.71 2.9 98.002 3.016 63.856zM64.584 5.852C32.622 6.025 6.81 32.066 6.925 64.085c.058 32.02 26.214 58.176 57.946 58.061 32.077-.172 57.774-26.328 57.601-58.578-.23-31.962-26.156-57.888-57.888-57.716z" />
  <path d="M62.457 34.078a15730.233 15730.233 0 01-31.158 31.215c-.747-1.15-1.38-2.127-1.839-2.875 11.842-11.842 23.914-23.971 35.814-35.87 11.784 11.611 23.856 23.568 36.273 35.755a62.201 62.201 0 01-2.587 2.127c-10.347-10.29-20.752-20.58-31.1-30.87-.23.115-.46.173-.69.288v69.385h-3.966V34.365a3.988 3.988 0 01-.747-.287z" />
</svg>
