<?xml version="1.0" encoding="UTF-8"?>
<svg width="70px" height="70px" viewBox="0 0 70 70" version="1.1" xmlns="http://www.w3.org/2000/svg" xmlns:xlink="http://www.w3.org/1999/xlink">
    <!-- Generator: sketchtool 56.3 (101010) - https://sketch.com -->
    <title>C6D3F10E-9A1A-4A3C-8C7B-F3DD6308FE88</title>
    <desc>Created with sketchtool.</desc>
    <g id="Symbols" stroke="none" stroke-width="1" fill="none" fill-rule="evenodd">
        <g id="card/post/open" transform="translate(-20.000000, -292.000000)">
            <g id="mink-yes-check" transform="translate(20.000000, 292.000000)">
                <g id="left-arrow-copy" transform="translate(35.273438, 36.093750) rotate(90.000000) translate(-35.273438, -36.093750) translate(18.593750, 24.062500)"></g>
                <path d="M29.4757503,23.8692993 C29.946037,23.3977336 30.6864208,23.3977336 31.1567075,23.8692993 C31.6111062,24.3249338 31.6111062,25.0832625 31.1567075,25.5378349 L22.6332904,34.0844333 L50.7594017,34.0844333 C51.4150492,34.0844333 51.953125,34.6069791 51.953125,35.2644098 C51.953125,35.9218404 51.4150492,36.4613796 50.7594017,36.4613796 L22.6332904,36.4613796 L31.1567075,44.9920467 C31.6111062,45.4636125 31.6111062,46.2230033 31.1567075,46.6775757 C30.6864208,47.1491414 29.946037,47.1491414 29.4757503,46.6775757 L18.934549,36.1077053 C18.4801503,35.6520708 18.4801503,34.8937421 18.934549,34.4391697 L29.4757503,23.8692993 Z" id="Shape" fill="currentColor" transform="translate(35.273438, 35.273438) rotate(90.000000) translate(-35.273438, -35.273438) "></path>
                <circle id="Oval-Copy" stroke="currentColor" cx="35" cy="35" r="33.90625"></circle>
            </g>
        </g>
    </g>
</svg>
