<svg width="128" height="128" viewBox="0 0 128 128" xmlns="http://www.w3.org/2000/svg">
  <circle cx="50%" cy="50%" r="50%" fill="transparent" />
  <path d="M65.318 126C31.34 125.942 3.886 98.061 4 63.741c.115-34.147 27.57-61.798 61.49-61.74 33.976.057 61.488 27.938 61.317 62.2-.172 34.205-27.684 61.856-61.49 61.799zm1.601-3.909c32.49-1.38 57.257-28.226 55.941-60.534-1.315-31.79-28.199-57.027-59.315-55.648-32.718 1.437-56.97 28.226-55.54 61.339 1.258 30.813 28.484 56.165 58.914 54.843z" />
  <path d="M63.048 24.654h3.86V93.16c10.39-10.478 20.554-20.671 30.887-31.092 1.306 1.537 2.1 2.448 2.782 3.246l-35.542 35.648C53.169 89.231 41.302 77.443 29.039 65.314c.965-.798 1.873-1.595 3.122-2.62C42.381 72.83 52.658 82.967 63.048 93.33V24.654z" />
</svg>
