<svg width="18" height="18" viewBox="0 0 18 18" fill="currentColor" xmlns="http://www.w3.org/2000/svg">
  <path d="M4.69742 18C3.4325 18 2.2478 17.4903 1.39279 16.6775C-0.265396 15.1016 -0.727145 12.351 1.59725 10.1423L11.1335 1.07779C12.1001 0.159399 13.3298 -0.196017 14.5066 0.104295C15.6639 0.39818 16.6109 1.29912 16.921 2.39843C17.236 3.51886 16.8633 4.68797 15.8977 5.60636L6.77724 14.2759C6.2568 14.7709 5.66787 15.0639 5.07699 15.1227C4.491 15.1815 3.9324 15.0033 3.54109 14.6314C2.83282 13.9554 2.73107 12.6871 3.91088 11.5667L10.6304 5.17318C11.038 5.55584 10.7748 5.30604 11.038 5.55584C11.3011 5.80565 11.038 5.55584 11.4456 5.93851L4.86275 12.4731C4.30904 12.9985 4.25817 13.5008 4.49393 13.7258C4.59763 13.8232 4.75416 13.8682 4.93514 13.8489C5.21199 13.8223 5.69339 13.5186 5.98981 13.2385L14.9449 4.70174C15.571 4.10663 15.8107 3.40682 15.6199 2.7318C15.5246 2.40171 15.34 2.10034 15.0841 1.8569C14.8282 1.61345 14.5097 1.43619 14.1593 1.34228C13.4491 1.16136 12.7115 1.39004 12.0854 1.98515L2.54911 11.0496C0.772558 12.7386 1.19811 14.6828 2.34465 15.7729C3.49218 16.863 5.5358 17.269 7.31334 15.5782L16.8496 6.51372C16.9118 6.45436 16.9859 6.40721 17.0677 6.37502C17.1495 6.34283 17.2373 6.32626 17.326 6.32626C17.4147 6.32626 17.5025 6.34283 17.5843 6.37502C17.6661 6.40721 17.7403 6.45436 17.8025 6.51372C17.9291 6.63464 18 6.7974 18 6.96695C18 7.13649 17.9291 7.29926 17.8025 7.42017L8.26618 16.4847C7.14214 17.5518 5.88309 18 4.69742 18Z" fill="currentColor"/>
</svg>
