<svg width="128" height="128" viewBox="0 0 128 128" xmlns="http://www.w3.org/2000/svg">
  <path fill-rule="evenodd" clip-rule="evenodd" d="M113.205 114.554H14.793C6.635 114.554 0 107.891 0 99.699V39.459c0-8.192 6.635-14.854 14.793-14.854h20.08l1.758-5.954C37.35 15.39 40.315 13 43.803 13h40.394c3.39 0 6.39 2.38 7.184 5.68l.047.202 1.602 5.721h20.177c8.158 0 14.793 6.663 14.793 14.855v60.24c-.002 8.193-6.639 14.856-14.795 14.856zM14.793 29.555c-5.44 0-9.862 4.442-9.862 9.903v60.241c0 5.462 4.423 9.903 9.862 9.903h98.412c5.439 0 9.862-4.442 9.862-9.903V39.458c0-5.462-4.423-9.903-9.862-9.903h-23.91l-2.699-9.667a2.48 2.48 0 00-2.401-1.939H43.8a2.45 2.45 0 00-2.402 1.941l-2.85 9.665H14.794zM32.709 68.17c0 17.325 14.038 31.419 31.294 31.419 17.25 0 31.286-14.097 31.286-31.42 0-17.324-14.035-31.42-31.286-31.42-17.256 0-31.294 14.093-31.294 31.42zm31.294-26.473c-14.537 0-26.363 11.873-26.363 26.47s11.827 26.468 26.363 26.468c14.533 0 26.355-11.874 26.355-26.468 0-14.596-11.824-26.47-26.355-26.47zm41.47 1.617c0-2.52 2.035-4.568 4.549-4.568 2.51 0 4.544 2.047 4.546 4.568 0 2.522-2.033 4.567-4.546 4.567-2.515 0-4.549-2.044-4.549-4.567z" />
</svg>
