<svg width="16" height="16" viewBox="0 0 16 16" xmlns="http://www.w3.org/2000/svg">
  <path fill-rule="evenodd" clip-rule="evenodd" d="M13.657 2.343A7.948 7.948 0 008 0a7.948 7.948 0 00-5.657 2.343A7.948 7.948 0 000 8c0 2.137.832 4.146 2.343 5.657A7.948 7.948 0 008 16a7.948 7.948 0 005.657-2.343A7.948 7.948 0 0016 8a7.948 7.948 0 00-2.343-5.657zM8 15.063A7.07 7.07 0 01.937 8 7.07 7.07 0 018 .937 7.07 7.07 0 0115.063 8 7.07 7.07 0 018 15.063zm3.16-9.63a.469.469 0 11.662.663l-4.47 4.47a.467.467 0 01-.664 0l-2.51-2.51a.469.469 0 11.663-.662L7.02 9.572l4.14-4.139z" />
</svg>
