<svg width="128" height="128" viewBox="0 0 128 128" xmlns="http://www.w3.org/2000/svg">
  <path d="M0 0h128v125H0V0zm9.558 9.306v106.25H118.58V9.306H9.558z" fill="#000"/>
  <path d="M10 9h109v106H10V9zm18.698 46.695c-4.432 4.85-8.449 9.284-12.742 13.995C29.252 81.745 41.993 93.523 55.15 105.44a33261.445 33261.445 0 0158.586-64.154c-5.263-4.85-9.972-9.007-15.097-13.718-15.373 16.905-30.47 33.255-45.705 50.021-8.448-7.482-16.066-14.41-24.237-21.893z" fill="#fff"/>
  <path d="M27.91 56.174a3799.144 3799.144 0 0124.152 21.93C67.47 61.31 82.462 44.931 97.87 28c5.136 4.58 9.855 8.883 15.13 13.74C93.428 63.253 74.133 84.21 54.283 106 41.235 94.064 28.326 82.406 15 70.192c4.442-4.719 8.467-9.16 12.91-14.018z" fill="#000"/>
</svg>
