<svg width="128" height="128" viewBox="0 0 128 128" xmlns="http://www.w3.org/2000/svg">
  <path fill-rule="evenodd" clip-rule="evenodd" d="M0 64C0 28.632 28.632 0 64 0c35.368 0 64 28.632 64 64 0 35.368-28.632 64-64 64-35.368 0-64-28.632-64-64zm6.737 0c0 31.495 25.768 57.263 57.263 57.263 31.495 0 57.263-25.768 57.263-57.263 0-31.495-25.768-57.263-57.263-57.263C32.505 6.737 6.737 32.505 6.737 64z" />
  <path d="M67.368 57.424V30.155c0-1.764-1.515-3.208-3.368-3.208s-3.368 1.444-3.368 3.208v29.193c0 .16 0 .16.168.321 0 .16 0 .16.168.321 0 .16.169.16.169.32 0 .161.168.161.168.322l.505.48 26.948 25.665c.505.481 1.347.802 2.19.802.842 0 1.684-.32 2.357-.962 1.348-1.284 1.348-3.209 0-4.492L67.368 57.424z" />
</svg>
