<svg width="128" height="128" viewBox="0 0 128 128" xmlns="http://www.w3.org/2000/svg">
<path d="M1.32186 126.678C2.2031 127.559 3.30465 128 4.51635 128C5.72806 128 6.8296 127.559 7.71084 126.678L64 70.389L120.289 126.678C121.17 127.559 122.272 128 123.484 128C124.585 128 125.797 127.559 126.678 126.678C128.441 124.916 128.441 122.052 126.678 120.289L70.389 64L126.678 7.71084C128.441 5.94837 128.441 3.08434 126.678 1.32186C124.916 -0.44062 122.052 -0.44062 120.289 1.32186L64 57.611L7.71084 1.32186C5.94837 -0.44062 3.08434 -0.44062 1.32186 1.32186C-0.44062 3.08434 -0.44062 5.94837 1.32186 7.71084L57.611 64L1.32186 120.289C-0.44062 122.052 -0.44062 124.916 1.32186 126.678Z" />
</svg>
