<svg width="128" height="128" viewBox="0 0 128 128" xmlns="http://www.w3.org/2000/svg">
  <path fill-rule="evenodd" clip-rule="evenodd" d="M17.598 2h92.804C120.105 2 128 10.42 128 20.77v60.582c0 10.35-7.895 18.77-17.598 18.77H54.573l-37.038 27.491v-27.491C7.86 100.086 0 91.68 0 81.352V20.77C0 10.419 7.895 2 17.598 2zm92.804 90.123c5.568 0 10.098-4.833 10.098-10.771V20.77c0-5.94-4.53-10.771-10.098-10.771H17.598C12.03 10 7.5 14.83 7.5 20.77v60.582c0 5.938 4.53 10.77 10.098 10.77h7.437v20.179L52.22 92.123h58.182z" />
  <path d="M34.259 28.284H93.74v8H34.26v-8zM34.259 45.35H93.74v8H34.26v-8zM34.259 62.417H93.74v8H34.26v-8z" />
</svg>
