<svg width="16" height="16" viewBox="0 0 16 16" xmlns="http://www.w3.org/2000/svg">
  <path fill-rule="evenodd" clip-rule="evenodd" d="M13.634 2.34A7.93 7.93 0 007.987 0 7.93 7.93 0 002.34 2.34 7.93 7.93 0 000 7.987a7.93 7.93 0 002.34 5.647 7.93 7.93 0 005.647 2.34 7.93 7.93 0 005.647-2.34 7.93 7.93 0 002.34-5.647 7.93 7.93 0 00-2.34-5.647zm-.642 10.652a7.033 7.033 0 01-5.005 2.073 7.033 7.033 0 01-5.005-2.073 7.086 7.086 0 010-10.01A7.033 7.033 0 017.987.908c1.889 0 3.667.736 5.005 2.074a7.086 7.086 0 010 10.01zm-2.128-8.525a.452.452 0 01.642 0 .453.453 0 010 .642L8.629 7.987l2.87 2.877a.452.452 0 010 .642.438.438 0 01-.32.134.457.457 0 01-.319-.134L7.984 8.629l-2.877 2.877a.443.443 0 01-.639 0 .452.452 0 010-.642l2.878-2.877-2.878-2.878a.452.452 0 010-.642.452.452 0 01.642 0l2.878 2.878 2.877-2.878z" />
</svg>
