<?xml version="1.0" standalone="no"?>
<!DOCTYPE svg PUBLIC "-//W3C//DTD SVG 20010904//EN"
 "http://www.w3.org/TR/2001/REC-SVG-20010904/DTD/svg10.dtd">
<svg version="1.0" xmlns="http://www.w3.org/2000/svg"
 width="170pt" height="170pt" viewBox="0 0 172 172"
 preserveAspectRatio="xMidYMid meet">
<metadata>
Created by potrace 1.16, written by Peter Selinger 2001-2019
</metadata>
<g transform="translate(-80.000000,220.000000) scale(0.140000,-0.140000)"
stroke="none">
<path d="M1033 1445 c-118 -59 -166 -204 -107 -323 93 -186 353 -185 440 3 59
125 2 279 -123 332 -55 22 -151 17 -210 -12z m205 -1 c85 -35 142 -120 142
-214 0 -213 -257 -316 -404 -162 l-28 30 88 57 c48 32 94 59 101 62 10 4 13
36 13 124 l0 119 25 0 c14 0 42 -7 63 -16z"/>
<path d="M735 891 c-170 -45 -243 -261 -133 -395 29 -35 94 -76 120 -76 7 0
-5 9 -27 19 -51 23 -111 89 -124 138 -21 75 -25 73 109 73 l120 0 0 120 c0 95
3 120 14 120 34 0 104 -34 139 -68 49 -47 66 -79 77 -150 l9 -57 -4 64 c-7 87
-50 152 -129 193 -43 22 -125 31 -171 19z"/>
<path d="M1412 884 c-23 -9 -62 -36 -86 -60 -102 -102 -98 -259 10 -354 52
-45 93 -60 161 -59 l58 2 -65 7 c-69 8 -100 17 -100 30 0 4 25 50 55 101 l55
94 0 124 0 123 38 -6 c54 -10 122 -55 156 -104 38 -54 48 -149 22 -217 -19
-47 -79 -109 -130 -131 -17 -7 -24 -13 -15 -14 9 0 38 15 65 33 68 45 104 117
104 204 0 71 -15 110 -64 161 -66 71 -176 98 -264 66z"/>
</g>
</svg>
