<svg width="26" height="24" viewBox="0 0 26 24" fill="none" xmlns="http://www.w3.org/2000/svg">
<ellipse cx="12.9317" cy="12" rx="12.13" ry="12" fill="#F4F4F2"/>
<path d="M12.9317 0C10.5326 0 8.18744 0.703788 6.19268 2.02236C4.19792 3.34094 2.64319 5.21509 1.7251 7.4078C0.807014 9.60051 0.5668 12.0133 1.03484 14.3411C1.50287 16.6689 2.65814 18.8071 4.35455 20.4853C6.05095 22.1635 8.21231 23.3064 10.5653 23.7694C12.9183 24.2324 15.3572 23.9948 17.5737 23.0866C19.7901 22.1783 21.6846 20.6402 23.0174 18.6668C24.3503 16.6935 25.0617 14.3734 25.0617 12C25.0617 8.8174 23.7837 5.76515 21.5089 3.51472C19.2341 1.26428 16.1488 0 12.9317 0ZM15.9642 8H14.5996C14.0558 8 13.9426 8.221 13.9426 8.778V10H15.9642L15.753 12H13.9426V19H10.9101V12H8.88841V10H10.9101V7.692C10.9101 5.923 11.8511 5 13.9719 5H15.9642V8Z" fill="#6D6D6D"/>
</svg>
