<svg width="26" height="24" viewBox="0 0 26 24" fill="none" xmlns="http://www.w3.org/2000/svg">
<ellipse cx="12.9315" cy="12" rx="12.13" ry="12" fill="#F4F4F2"/>
<path d="M12.9315 0C10.5324 0 8.1872 0.703788 6.19244 2.02236C4.19767 3.34094 2.64295 5.21509 1.72486 7.4078C0.806769 9.60051 0.566556 12.0133 1.03459 14.3411C1.50263 16.6689 2.6579 18.8071 4.3543 20.4853C6.05071 22.1635 8.21206 23.3064 10.565 23.7694C12.918 24.2324 15.357 23.9948 17.5734 23.0866C19.7899 22.1783 21.6843 20.6402 23.0172 18.6668C24.35 16.6935 25.0614 14.3734 25.0614 12C25.0614 8.8174 23.7835 5.76515 21.5087 3.51472C19.2339 1.26428 16.1485 0 12.9315 0ZM15.964 8H14.5994C14.0555 8 13.9423 8.221 13.9423 8.778V10H15.964L15.7527 12H13.9423V19H10.9098V12H8.88816V10H10.9098V7.692C10.9098 5.923 11.8509 5 13.9716 5H15.964V8Z" fill="#6D6D6D"/>
</svg>
