<svg width="24" height="24" viewBox="0 0 26 25" fill="none" xmlns="http://www.w3.org/2000/svg">
<path d="M13 24.9999C10.609 25.004 8.27173 24.2902 6.29101 22.9509C4.36152 21.6484 2.85118 19.8143 1.94301 17.6709C1.16494 15.8319 0.85865 13.8277 1.05198 11.8404C1.2453 9.85297 1.93211 7.94537 3.05001 6.29087C4.35235 4.36169 6.18602 2.85141 8.32901 1.94287C10.168 1.16435 12.1725 0.857826 14.1601 1.05116C16.1477 1.24449 18.0555 1.93155 19.71 3.04987C21.6392 4.35242 23.1492 6.1865 24.057 8.32987C24.8352 10.1687 25.1417 12.1729 24.9485 14.1603C24.7554 16.1476 24.0687 18.0553 22.951 19.7099C21.6487 21.6391 19.815 23.1494 17.672 24.0579C16.1939 24.683 14.6049 25.0034 13 24.9999ZM7.83001 6.27987C7.41891 6.2804 7.02482 6.44401 6.73422 6.73479C6.44363 7.02558 6.28027 7.41978 6.28001 7.83087V18.1689C6.28027 18.5801 6.4436 18.9744 6.73416 19.2653C7.02473 19.5562 7.41882 19.7201 7.83001 19.7209H18.17C18.5812 19.7201 18.9753 19.5562 19.2659 19.2653C19.5564 18.9744 19.7197 18.5801 19.72 18.1689V7.83087C19.7197 7.41978 19.5564 7.02558 19.2658 6.73479C18.9752 6.44401 18.5811 6.2804 18.17 6.27987H7.83001ZM17.651 18.1689H8.35101C8.21397 18.1689 8.08252 18.1146 7.98543 18.0179C7.88835 17.9211 7.83354 17.7899 7.83301 17.6529V11.9659H9.00001C8.91183 12.3035 8.86647 12.6509 8.86501 12.9999C8.86501 13.543 8.97198 14.0807 9.1798 14.5825C9.38763 15.0842 9.69225 15.5401 10.0763 15.9241C10.4603 16.3081 10.9162 16.6127 11.4179 16.8206C11.9197 17.0284 12.4574 17.1354 13.0005 17.1354C13.5436 17.1354 14.0814 17.0284 14.5831 16.8206C15.0848 16.6127 15.5407 16.3081 15.9247 15.9241C16.3088 15.5401 16.6134 15.0842 16.8212 14.5825C17.029 14.0807 17.136 13.543 17.136 12.9999C17.1342 12.6509 17.0885 12.3035 17 11.9659H18.17V17.6529C18.1695 17.7899 18.1147 17.9211 18.0176 18.0179C17.9205 18.1146 17.789 18.1689 17.652 18.1689H17.651ZM13 15.5849C12.402 15.5848 11.8224 15.3774 11.3602 14.9979C10.8979 14.6185 10.5815 14.0905 10.4649 13.5039C10.3483 12.9174 10.4386 12.3085 10.7206 11.7811C11.0026 11.2537 11.4587 10.8404 12.0112 10.6116C12.5638 10.3827 13.1786 10.3526 13.7509 10.5262C14.3231 10.6999 14.8175 11.0666 15.1497 11.5639C15.4819 12.0612 15.6315 12.6583 15.5728 13.2534C15.5141 13.8486 15.2509 14.405 14.828 14.8279C14.5885 15.0687 14.3036 15.2595 13.9898 15.3895C13.6761 15.5194 13.3396 15.5858 13 15.5849ZM17.652 10.4159H16.1C15.9629 10.4159 15.8314 10.3614 15.7344 10.2644C15.6375 10.1675 15.583 10.036 15.583 9.89887V8.34787C15.583 8.21075 15.6375 8.07925 15.7344 7.9823C15.8314 7.88534 15.9629 7.83087 16.1 7.83087H17.65C17.7872 7.83087 17.9188 7.88531 18.0159 7.98224C18.1131 8.07916 18.1677 8.21066 18.168 8.34787V9.89987C18.1675 10.0366 18.1129 10.1675 18.0163 10.2642C17.9196 10.3608 17.7887 10.4153 17.652 10.4159Z" fill="#E0E0E0"/>
</svg>
