<?xml version="1.0" encoding="utf-8"?>
<!-- Generator: Adobe Illustrator 24.1.2, SVG Export Plug-In . SVG Version: 6.00 Build 0)  -->
<svg version="1.1" id="Layer_1" xmlns="http://www.w3.org/2000/svg" xmlns:xlink="http://www.w3.org/1999/xlink" x="0px" y="0px"
	 viewBox="0 0 23.9 23.9" style="enable-background:new 0 0 23.9 23.9;" xml:space="preserve">
<style type="text/css">
	.st0{fill:#E0E0E0;}
</style>
<path class="st0" d="M12,23.9c-2.4,0-4.7-0.7-6.7-2c-1.9-1.3-3.4-3.1-4.3-5.3c-0.8-1.8-1.1-3.8-0.9-5.8s0.9-3.9,2-5.5
	C3.4,3.4,5.2,1.9,7.4,1c1.8-0.8,3.8-1.1,5.8-0.9s3.9,0.9,5.5,2c1.9,1.3,3.4,3.1,4.3,5.3c0.8,1.8,1.1,3.8,0.9,5.8s-0.9,3.9-2,5.5
	c-1.3,1.9-3.1,3.4-5.3,4.3C15.2,23.6,13.6,23.9,12,23.9z M6.8,5.2C6.4,5.2,6,5.3,5.7,5.6C5.4,5.9,5.3,6.3,5.3,6.7V17
	c0,0.4,0.2,0.8,0.5,1.1c0.3,0.3,0.7,0.5,1.1,0.5h10.3c0.4,0,0.8-0.2,1.1-0.5c0.3-0.3,0.5-0.7,0.5-1.1V6.7c0-0.4-0.2-0.8-0.5-1.1
	c-0.3-0.3-0.7-0.5-1.1-0.5L6.8,5.2L6.8,5.2z M16.7,17.1H7.4c-0.1,0-0.3-0.1-0.4-0.2s-0.2-0.2-0.2-0.4v-5.7H8c-0.1,0.3-0.1,0.7-0.1,1
	c0,0.5,0.1,1.1,0.3,1.6c0.2,0.5,0.5,1,0.9,1.3c0.4,0.4,0.8,0.7,1.3,0.9c0.5,0.2,1,0.3,1.6,0.3c0.5,0,1.1-0.1,1.6-0.3
	c0.5-0.2,1-0.5,1.3-0.9c0.4-0.4,0.7-0.8,0.9-1.3s0.3-1,0.3-1.6c0-0.3,0-0.7-0.1-1h1.2v5.7c0,0.1-0.1,0.3-0.2,0.4
	S16.8,17.1,16.7,17.1L16.7,17.1z M12,14.5c-0.6,0-1.2-0.2-1.6-0.6c-0.5-0.4-0.8-0.9-0.9-1.5c-0.1-0.6,0-1.2,0.3-1.7s0.7-0.9,1.3-1.2
	c0.6-0.2,1.2-0.3,1.7-0.1c0.6,0.2,1.1,0.5,1.4,1s0.5,1.1,0.4,1.7c-0.1,0.6-0.3,1.2-0.7,1.6c-0.2,0.2-0.5,0.4-0.8,0.6
	C12.7,14.4,12.3,14.5,12,14.5z M16.7,9.3h-1.6c-0.1,0-0.3-0.1-0.4-0.2c-0.1-0.1-0.2-0.2-0.2-0.4V7.3c0-0.1,0.1-0.3,0.2-0.4
	c0.1-0.1,0.2-0.2,0.4-0.2h1.5c0.1,0,0.3,0.1,0.4,0.2s0.2,0.2,0.2,0.4v1.6c0,0.1-0.1,0.3-0.2,0.4C16.9,9.3,16.8,9.3,16.7,9.3z"/>
</svg>
