<svg width="24" height="24" viewBox="0 0 24 24" fill="none" xmlns="http://www.w3.org/2000/svg">
<circle cx="12" cy="12" r="12" fill="#6D6D6D"/>
<path d="M9.23684 5C6.90341 5 5 6.90341 5 9.23684V14.7632C5 17.0963 6.90334 19 9.23684 19H14.7632C17.0963 19 19 17.0963 19 14.7632V9.23684C19 6.90334 17.0963 5 14.7632 5H9.23684ZM9.23684 6.10526H14.7632C16.4989 6.10526 17.8947 7.50077 17.8947 9.23684V14.7632C17.8947 16.4988 16.4988 17.8947 14.7632 17.8947H9.23684C7.50077 17.8947 6.10526 16.4989 6.10526 14.7632V9.23684C6.10526 7.5007 7.5007 6.10526 9.23684 6.10526ZM15.6842 7.57895C15.2771 7.57895 14.9474 7.90868 14.9474 8.31579C14.9474 8.72289 15.2771 9.05263 15.6842 9.05263C16.0913 9.05263 16.4211 8.72289 16.4211 8.31579C16.4211 7.90868 16.0913 7.57895 15.6842 7.57895ZM12 8.31579C9.97191 8.31579 8.31579 9.97191 8.31579 12C8.31579 14.0281 9.97191 15.6842 12 15.6842C14.0281 15.6842 15.6842 14.0281 15.6842 12C15.6842 9.97191 14.0281 8.31579 12 8.31579ZM12 9.42105C13.4306 9.42105 14.5789 10.5694 14.5789 12C14.5789 13.4306 13.4306 14.5789 12 14.5789C10.5694 14.5789 9.42105 13.4306 9.42105 12C9.42105 10.5694 10.5694 9.42105 12 9.42105Z" fill="#F4F4F2"/>
</svg>
