<svg width="24" height="24" viewBox="0 0 24 24" fill="none" xmlns="http://www.w3.org/2000/svg">
<path d="M12 0C9.62663 0 7.30655 0.703788 5.33316 2.02236C3.35977 3.34094 1.8217 5.21509 0.913451 7.4078C0.00519943 9.60051 -0.232441 12.0133 0.230582 14.3411C0.693605 16.6689 1.83649 18.8071 3.51472 20.4853C5.19295 22.1635 7.33115 23.3064 9.65892 23.7694C11.9867 24.2324 14.3995 23.9948 16.5922 23.0866C18.7849 22.1783 20.6591 20.6402 21.9776 18.6668C23.2962 16.6935 24 14.3734 24 12C24 8.8174 22.7357 5.76515 20.4853 3.51472C18.2348 1.26428 15.1826 0 12 0V0ZM10 16H8.00001V10H10V16ZM9.00001 9.109C8.78029 9.11078 8.565 9.04726 8.38145 8.92649C8.19789 8.80572 8.05435 8.63315 7.96903 8.43067C7.88371 8.22819 7.86046 8.00493 7.90223 7.78921C7.944 7.5735 8.0489 7.37505 8.20364 7.21906C8.35837 7.06306 8.55595 6.95654 8.77132 6.91301C8.98669 6.86949 9.21013 6.89092 9.4133 6.97458C9.61646 7.05825 9.7902 7.20038 9.91246 7.38295C10.0347 7.56551 10.1 7.78028 10.1 8C10.1012 8.14521 10.0736 8.28922 10.0189 8.42372C9.96412 8.55822 9.88328 8.68054 9.78102 8.78364C9.67876 8.88674 9.5571 8.96857 9.42305 9.02442C9.289 9.08026 9.14522 9.109 9.00001 9.109ZM17 16H15V13.139C15 11.258 13 11.417 13 13.139V16H11V10H13V11.093C13.872 9.477 17 9.357 17 12.641V16Z" fill="#E0E0E0"/>
</svg>
