<svg width="25" height="24" viewBox="0 0 25 24" fill="none" xmlns="http://www.w3.org/2000/svg">
<ellipse cx="12.3465" cy="12" rx="12.13" ry="12" fill="#F4F4F2"/>
<path d="M12.3465 0C9.94744 0 7.60224 0.703788 5.60747 2.02236C3.61271 3.34094 2.05798 5.21509 1.1399 7.4078C0.221808 9.60051 -0.0184053 12.0133 0.449632 14.3411C0.917669 16.6689 2.07294 18.8071 3.76934 20.4853C5.46575 22.1635 7.6271 23.3064 9.98008 23.7694C12.3331 24.2324 14.772 23.9948 16.9885 23.0866C19.2049 22.1783 21.0994 20.6402 22.4322 18.6668C23.7651 16.6935 24.4765 14.3734 24.4765 12C24.4765 8.8174 23.1985 5.76515 20.9237 3.51472C18.6489 1.26428 15.5636 0 12.3465 0V0ZM10.3249 16H8.3032V10H10.3249V16ZM9.31403 9.109C9.09194 9.11078 8.87431 9.04726 8.68877 8.92649C8.50323 8.80572 8.35813 8.63315 8.27189 8.43067C8.18564 8.22819 8.16214 8.00493 8.20436 7.78921C8.24659 7.5735 8.35263 7.37505 8.50904 7.21906C8.66544 7.06306 8.86517 6.95654 9.08287 6.91301C9.30057 6.86949 9.52643 6.89092 9.7318 6.97458C9.93717 7.05825 10.1128 7.20038 10.2364 7.38295C10.36 7.56551 10.4259 7.78028 10.4259 8C10.4271 8.14521 10.3993 8.28922 10.3439 8.42372C10.2886 8.55822 10.2069 8.68054 10.1035 8.78364C10.0001 8.88674 9.87715 8.96857 9.74165 9.02442C9.60615 9.08026 9.46082 9.109 9.31403 9.109ZM17.4007 16H15.379V13.139C15.379 11.258 13.3574 11.417 13.3574 13.139V16H11.3357V10H13.3574V11.093C14.2388 9.477 17.4007 9.357 17.4007 12.641V16Z" fill="#6D6D6D"/>
</svg>
