<svg width="25" height="24" viewBox="0 0 25 24" fill="none" xmlns="http://www.w3.org/2000/svg">
<path d="M12.3468 0C9.94769 0 7.60248 0.703788 5.60772 2.02236C3.61296 3.34094 2.05823 5.21509 1.14014 7.4078C0.222053 9.60051 -0.0181611 12.0133 0.449876 14.3411C0.917913 16.6689 2.07318 18.8071 3.76959 20.4853C5.46599 22.1635 7.62735 23.3064 9.98033 23.7694C12.3333 24.2324 14.7722 23.9948 16.9887 23.0866C19.2052 22.1783 21.0996 20.6402 22.4325 18.6668C23.7653 16.6935 24.4767 14.3734 24.4767 12C24.4767 8.8174 23.1988 5.76515 20.9239 3.51472C18.6491 1.26428 15.5638 0 12.3468 0V0ZM10.3251 16H8.30344V10H10.3251V16ZM9.31427 9.109C9.09218 9.11078 8.87456 9.04726 8.68902 8.92649C8.50347 8.80572 8.35838 8.63315 8.27213 8.43067C8.18589 8.22819 8.16239 8.00493 8.20461 7.78921C8.24683 7.5735 8.35287 7.37505 8.50928 7.21906C8.66569 7.06306 8.86541 6.95654 9.08311 6.91301C9.30081 6.86949 9.52667 6.89092 9.73204 6.97458C9.93741 7.05825 10.113 7.20038 10.2366 7.38295C10.3602 7.56551 10.4262 7.78028 10.4262 8C10.4274 8.14521 10.3995 8.28922 10.3442 8.42372C10.2888 8.55822 10.2071 8.68054 10.1038 8.78364C10.0004 8.88674 9.8774 8.96857 9.7419 9.02442C9.6064 9.08026 9.46106 9.109 9.31427 9.109ZM17.4009 16H15.3793V13.139C15.3793 11.258 13.3576 11.417 13.3576 13.139V16H11.3359V10H13.3576V11.093C14.239 9.477 17.4009 9.357 17.4009 12.641V16Z" fill="#6D6D6D"/>
</svg>
