<svg version="1.1" xmlns="http://www.w3.org/2000/svg" xmlns:xlink="http://www.w3.org/1999/xlink" viewBox="0 0 172 172"><g fill="none" fill-rule="nonzero" stroke="none" stroke-width="1" stroke-linecap="butt" stroke-linejoin="miter" stroke-miterlimit="10" stroke-dasharray="" stroke-dashoffset="0" font-family="none" font-weight="none" font-size="none" text-anchor="none" style="mix-blend-mode: normal"><path d="M0,172v-172h172v172z" fill="none"></path><g fill="#7d7d7d"><path d="M86,3.44c-30.34187,0 -55.04,24.69813 -55.04,55.04c0,48.54969 50.32344,106.45188 52.46,108.8975c0.65844,0.7525 1.58563,1.1825 2.58,1.1825c1.06156,-0.06719 1.92156,-0.43 2.58,-1.1825c2.13656,-2.48594 52.46,-61.3825 52.46,-108.8975c0,-30.34187 -24.69812,-55.04 -55.04,-55.04zM86,41.28c11.395,0 20.64,9.245 20.64,20.64c0,11.395 -9.245,20.64 -20.64,20.64c-11.395,0 -20.64,-9.245 -20.64,-20.64c0,-11.395 9.245,-20.64 20.64,-20.64z"></path></g></g></svg>
