<?xml version="1.0" encoding="UTF-8"?>
<svg width="23px" height="12px" viewBox="0 0 23 12" version="1.1" xmlns="http://www.w3.org/2000/svg" xmlns:xlink="http://www.w3.org/1999/xlink">
    <!-- Generator: sketchtool 55.2 (78181) - https://sketchapp.com -->
    <title>1145AEAF-B228-41E4-A3AD-6FBD5556982C</title>
    <desc>Created with sketchtool.</desc>
    <g id="mobile-UI" stroke-width="1" fill="none" fill-rule="evenodd">
        <g id="34.-Get_notified_w_mods_2" transform="translate(-331.000000, -25.000000)" fill="#002633" fill-rule="nonzero">
            <g id="header_generic_white">
                <g id="Header">
                    <g id="icon_menu" transform="translate(331.000000, 23.000000)">
                        <g id="menu" transform="translate(0.000000, 2.625000)">
                            <path d="M15.3644694,4.71364785 C15.7216888,4.71364785 16.0112357,4.99110104 16.0112357,5.33333326 C16.0112357,5.67559544 15.7216888,5.95301867 15.3644694,5.95301867 L0.646766361,5.95301867 C0.289578208,5.95301867 0,5.67559544 0,5.33333326 C0,4.99107108 0.289578208,4.71364785 0.646766361,4.71364785 L15.3644694,4.71364785 Z M22.0817081,0.0131535577 C22.5951014,0.0131535577 23.0112362,0.290606749 23.0112362,0.632838969 C23.0112362,0.975071189 22.5951014,1.25252438 22.0817081,1.25252438 L0.929528099,1.25252438 C0.41617978,1.25252438 0,0.975071189 0,0.632838969 C0,0.290606749 0.41617978,0.0131535577 0.929528099,0.0131535577 L22.0817081,0.0131535577 Z M18.2432858,9.41414214 C18.6674368,9.41414214 19.0112357,9.69156537 19.0112357,10.0338275 C19.0112357,10.3760897 18.6674368,10.653513 18.2432858,10.653513 L0.767949955,10.653513 C0.343836021,10.653513 0,10.3760897 0,10.0338275 C0,9.69156537 0.343836021,9.41414214 0.767949955,9.41414214 L18.2432858,9.41414214 Z" id="menu-icon"></path>
                        </g>
                    </g>
                </g>
            </g>
        </g>
    </g>
</svg>