<svg
  xmlns="http://www.w3.org/2000/svg"
  width="128"
  height="128"
  viewBox="0 0 128 128"
>
  <path
    fill="none"
    d="M22.74 69A42.07 42.07 0 0059 106.13V69zM106.13 59A42.07 42.07 0 0069 22.74V59zM59 22.87A42.07 42.07 0 0022.87 59H59zM69 106.26A42.09 42.09 0 00106.26 69H69z"
  />
  <path
    d="M128 59h-11.79A52.08 52.08 0 0069 12.71V0H59v12.79A52.1 52.1 0 0012.79 59H0v10h12.71A52.08 52.08 0 0059 116.21V128h10v-11.71A52.06 52.06 0 00116.29 69H128zm-21.87 0H69V22.74A42.07 42.07 0 01106.13 59zM59 22.87V59H22.87A42.07 42.07 0 0159 22.87zM22.74 69H59v37.13A42.07 42.07 0 0122.74 69zM69 106.26V69h37.26A42.09 42.09 0 0169 106.26z"
  />
</svg>
