<svg width="96" height="97" viewBox="0 0 96 97" fill="none" xmlns="http://www.w3.org/2000/svg">
<path d="M95.0312 48.2754C95.0312 74.25 73.9746 95.3066 48 95.3066C22.0254 95.3066 0.96875 74.25 0.96875 48.2754C0.96875 22.3007 22.0254 1.24414 48 1.24414C73.9746 1.24414 95.0312 22.3007 95.0312 48.2754Z" stroke="#88898E" stroke-width="1.9375"/>
<path d="M62.3284 68.4336H32.6924C32.7337 64.8376 33.6017 61.6963 35.2964 59.0096C36.9911 56.3229 39.3057 53.9876 42.2404 52.0036C43.6457 50.9703 45.1131 49.9783 46.6424 49.0276C48.1717 48.0356 49.5771 46.9816 50.8584 45.8656C52.1397 44.7496 53.1937 43.5509 54.0204 42.2696C54.8471 40.9469 55.2811 39.4383 55.3224 37.7436C55.3224 36.9583 55.2191 36.1316 55.0124 35.2636C54.8471 34.3543 54.4957 33.5276 53.9584 32.7836C53.4211 31.9983 52.6771 31.3576 51.7264 30.8616C50.7757 30.3243 49.5357 30.0556 48.0064 30.0556C46.6011 30.0556 45.4231 30.3449 44.4724 30.9236C43.5631 31.4609 42.8191 32.2256 42.2404 33.2176C41.7031 34.1683 41.2897 35.3049 41.0004 36.6276C40.7524 37.9503 40.6077 39.3763 40.5664 40.9056H33.4984C33.4984 38.5083 33.8084 36.2969 34.4284 34.2716C35.0897 32.2049 36.0611 30.4276 37.3424 28.9396C38.6237 27.4516 40.1737 26.2943 41.9924 25.4676C43.8524 24.5996 46.0017 24.1656 48.4404 24.1656C51.0857 24.1656 53.2971 24.5996 55.0744 25.4676C56.8517 26.3356 58.2777 27.4309 59.3524 28.7536C60.4684 30.0763 61.2537 31.5229 61.7084 33.0936C62.1631 34.6229 62.3904 36.0903 62.3904 37.4956C62.3904 39.2316 62.1217 40.8023 61.5844 42.2076C61.0471 43.6129 60.3237 44.9149 59.4144 46.1136C58.5051 47.2709 57.4717 48.3456 56.3144 49.3376C55.1571 50.3296 53.9584 51.2596 52.7184 52.1276C51.4784 52.9956 50.2384 53.8223 48.9984 54.6076C47.7584 55.3929 46.6011 56.1783 45.5264 56.9636C44.4931 57.7489 43.5837 58.5756 42.7984 59.4436C42.0131 60.2703 41.4757 61.1589 41.1864 62.1096H62.3284V68.4336Z" fill="#88898E"/>
</svg>
