<svg width="98" height="97" viewBox="0 0 98 97" fill="none" xmlns="http://www.w3.org/2000/svg">
<path d="M96.3405 48.6812C96.3405 74.6024 75.1501 95.6294 48.9934 95.6294C22.8368 95.6294 1.64639 74.6024 1.64639 48.6812C1.64639 22.76 22.8368 1.73303 48.9934 1.73303C75.1501 1.73303 96.3405 22.76 96.3405 48.6812Z" stroke="#88898E" stroke-width="1.9375"/>
<path d="M34.5505 32.6917C36.0385 32.6917 37.4852 32.5677 38.8905 32.3197C40.2959 32.0717 41.5565 31.6583 42.6725 31.0797C43.8299 30.501 44.8012 29.757 45.5865 28.8477C46.4132 27.9383 46.9505 26.8223 47.1985 25.4997H52.9645V68.8997H45.2145V38.2717H34.5505V32.6917Z" fill="#88898E"/>
</svg>
