<svg width="97" height="97" viewBox="0 0 97 97" fill="none" xmlns="http://www.w3.org/2000/svg">
<path d="M95.9951 48.7406C95.9951 74.6483 74.7373 95.6704 48.4901 95.6704C22.2429 95.6704 0.985199 74.6483 0.985199 48.7406C0.985199 22.8328 22.2429 1.81079 48.4901 1.81079C74.7373 1.81079 95.9951 22.8328 95.9951 48.7406Z" stroke="#88898E" stroke-width="1.9375"/>
<path d="M38.3856 25.5724H60.8296V31.8964H43.6556L41.4236 42.9324L41.5476 43.0564C42.4983 41.9817 43.6969 41.1757 45.1436 40.6384C46.6316 40.0597 48.0989 39.7704 49.5456 39.7704C51.6949 39.7704 53.6169 40.1424 55.3116 40.8864C57.0063 41.5891 58.4323 42.6017 59.5896 43.9244C60.7469 45.2057 61.6149 46.7351 62.1936 48.5124C62.8136 50.2897 63.1236 52.2117 63.1236 54.2784C63.1236 56.0144 62.8343 57.8124 62.2556 59.6724C61.7183 61.4911 60.8296 63.1651 59.5896 64.6944C58.3909 66.1824 56.8409 67.4224 54.9396 68.4144C53.0383 69.3651 50.7649 69.8404 48.1196 69.8404C46.0116 69.8404 44.0483 69.5511 42.2296 68.9724C40.4523 68.4351 38.8816 67.6084 37.5176 66.4924C36.1536 65.3764 35.0583 64.0124 34.2316 62.4004C33.4463 60.7471 33.0123 58.8251 32.9296 56.6344H39.9976C40.2043 58.9904 41.0103 60.8091 42.4156 62.0904C43.8209 63.3304 45.6809 63.9504 47.9956 63.9504C49.4836 63.9504 50.7443 63.7024 51.7776 63.2064C52.8109 62.7104 53.6376 62.0284 54.2576 61.1604C54.9189 60.2924 55.3736 59.2797 55.6216 58.1224C55.9109 56.9651 56.0556 55.7251 56.0556 54.4024C56.0556 53.2037 55.8903 52.0671 55.5596 50.9924C55.2289 49.8764 54.7329 48.9051 54.0716 48.0784C53.4103 47.2517 52.5423 46.5904 51.4676 46.0944C50.4343 45.5984 49.2149 45.3504 47.8096 45.3504C46.3216 45.3504 44.9163 45.6397 43.5936 46.2184C42.3123 46.7557 41.3823 47.7891 40.8036 49.3184H33.7356L38.3856 25.5724Z" fill="#88898E"/>
</svg>
