<svg width="97" height="97" viewBox="0 0 97 97" fill="none" xmlns="http://www.w3.org/2000/svg">
<path d="M95.9951 48.5464C95.9951 74.5121 74.7354 95.5776 48.4901 95.5776C22.2449 95.5776 0.985199 74.5121 0.985199 48.5464C0.985199 22.5807 22.2449 1.51514 48.4901 1.51514C74.7354 1.51514 95.9951 22.5807 95.9951 48.5464Z" stroke="#88898E" stroke-width="1.9375"/>
<path d="M44.8956 43.2846C46.0529 43.3259 47.2103 43.2433 48.3676 43.0366C49.5249 42.8299 50.5583 42.4786 51.4676 41.9826C52.3769 41.4453 53.1003 40.7219 53.6376 39.8126C54.2163 38.9033 54.5056 37.7873 54.5056 36.4646C54.5056 34.6046 53.8649 33.1166 52.5836 32.0006C51.3436 30.8846 49.7316 30.3266 47.7476 30.3266C46.5076 30.3266 45.4329 30.5746 44.5236 31.0706C43.6143 31.5666 42.8496 32.2486 42.2296 33.1166C41.6509 33.9433 41.2169 34.8939 40.9276 35.9686C40.6383 37.0019 40.5143 38.0766 40.5556 39.1926H33.4876C33.5703 37.0846 33.9629 35.1419 34.6656 33.3646C35.3683 31.5459 36.3189 29.9753 37.5176 28.6526C38.7576 27.3299 40.2456 26.2966 41.9816 25.5526C43.7176 24.8086 45.6809 24.4366 47.8716 24.4366C49.5663 24.4366 51.2196 24.6846 52.8316 25.1806C54.4849 25.6766 55.9523 26.3999 57.2336 27.3506C58.5563 28.3013 59.6103 29.5206 60.3956 31.0086C61.1809 32.4553 61.5736 34.1293 61.5736 36.0306C61.5736 38.2213 61.0776 40.1433 60.0856 41.7966C59.0936 43.4086 57.5436 44.5866 55.4356 45.3306V45.4546C57.9156 45.9506 59.8376 47.1906 61.2016 49.1746C62.6069 51.1173 63.3096 53.4939 63.3096 56.3046C63.3096 58.3713 62.8963 60.2313 62.0696 61.8846C61.2429 63.4966 60.1269 64.8813 58.7216 66.0386C57.3163 67.1546 55.6836 68.0226 53.8236 68.6426C51.9636 69.2626 50.0003 69.5726 47.9336 69.5726C45.4123 69.5726 43.2009 69.2213 41.2996 68.5186C39.4396 67.7746 37.8689 66.7413 36.5876 65.4186C35.3476 64.0959 34.3969 62.5046 33.7356 60.6446C33.0743 58.7846 32.7229 56.7179 32.6816 54.4446H39.7496C39.6669 57.0899 40.3076 59.3013 41.6716 61.0786C43.0769 62.8146 45.1643 63.6826 47.9336 63.6826C50.2896 63.6826 52.2529 63.0213 53.8236 61.6986C55.4356 60.3346 56.2416 58.4126 56.2416 55.9326C56.2416 54.2379 55.9109 52.8946 55.2496 51.9026C54.5883 50.9106 53.7203 50.1666 52.6456 49.6706C51.5709 49.1333 50.3516 48.8026 48.9876 48.6786C47.6649 48.5546 46.3009 48.5133 44.8956 48.5546V43.2846Z" fill="#88898E"/>
</svg>
