<svg version="1.1" xmlns="http://www.w3.org/2000/svg" xmlns:xlink="http://www.w3.org/1999/xlink" viewBox="0 0 172 172"><g fill="none" fill-rule="nonzero" stroke="none" stroke-width="1" stroke-linecap="butt" stroke-linejoin="miter" stroke-miterlimit="10" stroke-dasharray="" stroke-dashoffset="0" font-family="none" font-weight="none" font-size="none" text-anchor="none" style="mix-blend-mode: normal"><path d="M0,172v-172h172v172z" fill="none"></path><g fill="#7d7d7d"><path d="M73.91969,41.28c-1.6125,0.01344 -2.99656,1.15563 -3.3325,2.74125l-9.63469,46.81625l-6.1275,-16.36687c-0.48375,-1.27656 -1.67969,-2.15 -3.05031,-2.21719c-1.35719,-0.08062 -2.63375,0.67188 -3.25187,1.88125l-5.92594,11.86531h-11.63688c-0.29562,0 -0.59125,0.04031 -0.87344,0.1075c-1.20938,-2.19031 -3.50719,-3.5475 -6.00656,-3.5475c-3.80281,0 -6.88,3.07719 -6.88,6.88c0,3.80281 3.07719,6.88 6.88,6.88c2.49938,0 4.79719,-1.35719 6.02,-3.5475c0.28219,0.08063 0.56438,0.1075 0.86,0.1075h13.76c1.30344,0 2.49938,-0.73906 3.07719,-1.89469l3.35938,-6.70531l7.53844,20.12938c0.55094,1.42437 1.97531,2.32469 3.49375,2.20375c1.51844,-0.1075 2.78156,-1.22281 3.10406,-2.71438l8.45219,-41.10531l10.58875,58.22469c0.26875,1.51844 1.53188,2.67406 3.06375,2.80844c1.53188,0.14781 2.98313,-0.7525 3.53406,-2.19031l13.94812,-36.26781l7.13531,19.04094c0.47031,1.22281 1.58563,2.08281 2.88906,2.20375c1.29,0.13437 2.55312,-0.48375 3.25187,-1.58563l7.59219,-12.1475h16.21906c1.23625,2.12313 3.49375,3.44 5.95281,3.44c3.80281,0 6.88,-3.07719 6.88,-6.88c0,-3.80281 -3.07719,-6.88 -6.88,-6.88c-2.45906,0 -4.73,1.31688 -5.95281,3.44h-18.12719c-1.1825,0 -2.28437,0.61813 -2.91594,1.6125l-4.91813,7.86094l-7.86094,-21.00281c-0.51062,-1.33031 -1.78719,-2.21719 -3.21156,-2.23063c-1.42437,0 -2.71437,0.87344 -3.225,2.20375l-12.80594,33.27125l-11.55625,-63.61312c-0.29562,-1.65281 -1.74687,-2.83531 -3.42656,-2.82188z"></path></g></g></svg>
