<svg width="128" height="128" viewBox="0 0 128 128" xmlns="http://www.w3.org/2000/svg">
  <path fill-rule="evenodd" clip-rule="evenodd" d="M0 63.903C0 28.606 28.606 0 63.903 0c35.127 0 63.904 28.606 63.904 63.903S99.2 127.807 63.903 127.807C28.606 127.807 0 99.2 0 63.903zm6.195 0c0 31.782 25.927 57.708 57.708 57.708 31.782 0 57.708-25.926 57.708-57.708 0-31.781-25.756-57.708-57.708-57.708-31.951 0-57.708 25.927-57.708 57.708zm60.388 30.945a3.351 3.351 0 01-3.346 3.346 3.351 3.351 0 01-3.345-3.346 3.351 3.351 0 013.345-3.345 3.361 3.361 0 013.346 3.345zm4.337-30.62c6.195-3.67 9.54-9.029 9.54-14.883 0-9.2-7.372-16.371-16.572-16.371S47.33 40.33 47.33 49.53a2.988 2.988 0 003.005 3.004 2.988 2.988 0 003.005-3.004c0-5.7 4.677-10.377 10.377-10.377 5.7 0 10.376 4.693 10.376 10.377 0 4.677-3.515 7.852-6.52 9.695-6.01 3.67-7.357 8.86-7.186 11.539v7.527c0 1.672 1.502 3.004 3.175 3.004a2.988 2.988 0 003.004-3.004v-8.038-.019c-.005-.308-.058-3.393 4.353-6.006z" />
</svg>
