<svg width="128" height="128" viewBox="0 0 128 128" xmlns="http://www.w3.org/2000/svg">
  <path d="m63.434785,0.072471c-22.095958,0 -40.072466,17.887111 -40.072466,39.873185l16.028986,0c0,-13.19005 10.787508,-23.923911 24.043479,-23.923911s24.043479,10.733861 24.043479,23.923911c0,8.524887 -3.63858,11.682843 -11.869464,17.982807c-3.061536,2.344543 -6.515783,4.992123 -9.825769,8.277673c-10.515015,10.454749 -10.402812,20.765955 -10.36274,21.587343l0,15.949274l16.028986,0l0,-16.021046c0,-0.191391 0.184333,-4.792757 5.666247,-10.239434c2.564638,-2.551884 5.465884,-4.768833 8.262942,-6.91401c8.495363,-6.507304 18.128783,-13.875868 18.128783,-30.622606c0,-21.986074 -17.976508,-39.873185 -40.072466,-39.873185zm-8.014493,111.644919l16.028986,0l0,15.949274l-16.028986,0l0,-15.949274z"/>
</svg>
