<svg xmlns="http://www.w3.org/2000/svg" width="37.027" height="33.061" viewBox="0 0 37.027 33.061"><defs><style>.a{fill:#e0e0e0;opacity:0.256;}.b{fill:#828282;}</style></defs><g transform="translate(22 18)"><path class="a" d="M7.5,0A7.5,7.5,0,1,1,0,7.5,7.5,7.5,0,0,1,7.5,0Z" transform="translate(0 0.051)"/><path class="b" d="M8.368,15.914a7.5,7.5,0,0,0,7.5-7.5q0-.115,0-.229A7.5,7.5,0,0,0,8.368.914v7.5l-3.738,6.5A7.465,7.465,0,0,0,8.368,15.914Z" transform="translate(-0.84 -0.914)"/></g><g transform="translate(11)"><path class="a" d="M7.5,0A7.5,7.5,0,1,1,0,7.5,7.5,7.5,0,0,1,7.5,0Z" transform="translate(0 0.051)"/><path class="b" d="M8.436,15.959a7.48,7.48,0,0,0,7.431-7.545q0-.115,0-.229A7.5,7.5,0,0,0,8.368.914v7.5L1.977,12.423A7.625,7.625,0,0,0,8.436,15.959Z" transform="translate(-0.84 -0.914)"/></g><g transform="translate(0 18)"><path class="a" d="M7.5,0A7.5,7.5,0,1,1,0,7.5,7.5,7.5,0,0,1,7.5,0Z" transform="translate(0 0.051)"/><path class="b" d="M8.27,15.975a7.636,7.636,0,0,0,7.6-7.561q0-.115,0-.229A7.5,7.5,0,0,0,8.368.914v7.5s-6.4.007-7.49,0C.877,14.844,6.675,15.975,8.27,15.975Z" transform="translate(-0.84 -0.914)"/></g></svg>