<svg width="128" height="128" viewBox="0 0 128 128" xmlns="http://www.w3.org/2000/svg">
  <path fill-rule="evenodd" clip-rule="evenodd" d="M122.76 115.679L93.798 86.7173C100.977 77.9648 105.304 66.7536 105.304 54.5345C105.304 26.5066 82.5623 3.76471 54.5345 3.76471C26.482 3.76471 3.76471 26.5066 3.76471 54.5345C3.76471 82.5623 26.482 105.304 54.5345 105.304C66.7536 105.304 77.9402 101.002 86.6927 93.8226L115.655 122.76C117.622 124.727 120.793 124.727 122.76 122.76C124.727 120.818 124.727 117.622 122.76 115.679ZM54.5345 95.1994C32.0876 95.1994 13.8449 76.9567 13.8449 54.5345C13.8449 32.1122 32.0876 13.8449 54.5345 13.8449C76.9567 13.8449 95.224 32.1122 95.224 54.5345C95.224 76.9567 76.9567 95.1994 54.5345 95.1994Z" />
</svg>
