<svg
  xmlns="http://www.w3.org/2000/svg"
  width="128"
  height="128"
  viewBox="0 0 128 128"
>
  <path
    d="M104.93 87.4c-6.08 0-11.53 2.73-15.22 7.02L42.13 68.38c.35-1.48.55-3.02.55-4.61 0-1.59-.2-3.13-.56-4.61l47.59-26.04c3.68 4.29 9.13 7.02 15.22 7.02 11.07 0 20.07-9 20.07-20.07S116 0 104.93 0 84.86 9 84.86 20.07c0 1.34.14 2.65.39 3.91l-47.9 26.21c-3.67-3.98-8.91-6.49-14.74-6.49-11.07 0-20.07 9-20.07 20.07s9 20.07 20.07 20.07c5.83 0 11.07-2.51 14.74-6.49l47.9 26.21c-.25 1.27-.39 2.57-.39 3.91 0 11.07 9 20.07 20.07 20.07s20.07-9 20.07-20.07-9-20.07-20.07-20.07zm0-77.24c5.46 0 9.91 4.45 9.91 9.91s-4.45 9.91-9.91 9.91-9.91-4.45-9.91-9.91 4.45-9.91 9.91-9.91zM22.61 73.68c-5.46 0-9.91-4.45-9.91-9.91s4.45-9.91 9.91-9.91 9.91 4.45 9.91 9.91-4.45 9.91-9.91 9.91zm82.32 43.7c-5.46 0-9.91-4.45-9.91-9.91s4.45-9.91 9.91-9.91 9.91 4.45 9.91 9.91-4.45 9.91-9.91 9.91z"
  />
</svg>
