<svg width="24" height="24" viewBox="0 0 24 24" fill="none" xmlns="http://www.w3.org/2000/svg">
<path d="M12 0C9.62663 0 7.30655 0.703788 5.33316 2.02236C3.35977 3.34094 1.8217 5.21509 0.913451 7.4078C0.00519943 9.60051 -0.232441 12.0133 0.230582 14.3411C0.693605 16.6689 1.83649 18.8071 3.51472 20.4853C5.19295 22.1635 7.33115 23.3064 9.65892 23.7694C11.9867 24.2324 14.3995 23.9948 16.5922 23.0866C18.7849 22.1783 20.6591 20.6402 21.9776 18.6668C23.2962 16.6935 24 14.3734 24 12C24 8.8174 22.7357 5.76515 20.4853 3.51472C18.2348 1.26428 15.1826 0 12 0V0ZM18.066 9.645C18.1353 11.1413 17.7918 12.6278 17.073 13.942C16.3543 15.2562 15.288 16.3475 13.9908 17.0964C12.6935 17.8454 11.2153 18.2232 9.71784 18.1885C8.22034 18.1539 6.7612 17.7081 5.50001 16.9C7.01885 17.0822 8.54795 16.6546 9.75201 15.711C9.1526 15.6993 8.5718 15.5008 8.09064 15.1432C7.60948 14.7855 7.25197 14.2866 7.06801 13.716C7.49941 13.799 7.94408 13.7822 8.36801 13.667C7.7127 13.5331 7.12455 13.175 6.70476 12.6543C6.28498 12.1335 6.05981 11.4828 6.06801 10.814C6.4666 11.0354 6.91228 11.1585 7.36801 11.173C6.76021 10.7664 6.33002 10.1437 6.16489 9.43136C5.99976 8.71901 6.11208 7.97051 6.47901 7.338C7.20025 8.22521 8.10003 8.95079 9.11993 9.46763C10.1398 9.98448 11.257 10.281 12.399 10.338C12.255 9.72196 12.3183 9.07563 12.5791 8.49924C12.8399 7.92285 13.2836 7.44861 13.8414 7.15007C14.3991 6.85153 15.0398 6.74537 15.6641 6.84805C16.2883 6.95074 16.8613 7.25653 17.294 7.718C17.9376 7.59082 18.5546 7.35405 19.118 7.018C18.9026 7.68476 18.4519 8.25031 17.85 8.609C18.4196 8.54143 18.9758 8.38873 19.5 8.156C19.1156 8.73468 18.6298 9.23912 18.066 9.645Z" fill="#E0E0E0"/>
</svg>
