<?xml version="1.0" encoding="utf-8"?>
<!DOCTYPE svg PUBLIC "-//W3C//DTD SVG 1.1//EN" "http://www.w3.org/Graphics/SVG/1.1/DTD/svg11.dtd">
<svg class="icon" width="48px" height="48px" viewBox="0 0 1024 1024" version="1.1" xmlns="http://www.w3.org/2000/svg">
    <path d="M512 224.9472L789.0688 716.8H234.9312L512 224.9472M512 153.6c-11.4176 0-22.8096 7.6544-31.4624 22.9888L178.6624 712.2688C161.3568 742.9376 175.9744 768 211.2 768h601.6c35.2 0 49.8432-25.0624 32.5376-55.7312L543.4624 176.5888C534.8096 161.2544 523.392 153.6 512 153.6z m-4.736 263.68a84.224 84.224 0 0 0-84.096 84.1216h41.4208c0-23.552 19.1488-42.7008 42.6752-42.7008a42.752 42.752 0 0 1 30.208 72.8576 42.5728 42.5728 0 0 1-30.208 12.4928 20.7104 20.7104 0 0 0-20.7104 20.6848v29.2864h41.3952v-11.2384a84.1472 84.1472 0 0 0 63.4112-81.3824 84.1984 84.1984 0 0 0-84.096-84.1216z m0 195.6608a27.648 27.648 0 1 0 0.0256 55.296 27.648 27.648 0 0 0-0.0256-55.296z"/>
</svg>
