<svg
  xmlns="http://www.w3.org/2000/svg"
  width="128"
  height="129"
  viewBox="0 0 128 129"
>
  <path
    d="M125.32 105.92a44.66 44.66 0 00-20.64-19.37l-19.7-9a7.36 7.36 0 01-4.24-6.72v-.1A13.17 13.17 0 0182 65.29 13.26 13.26 0 0183.37 63a46.43 46.43 0 009.18-27.82C92.55 15.76 80 0 64.6 0h-1.2C48 0 35.45 15.76 35.45 35.21A46.43 46.43 0 0044.63 63 13.26 13.26 0 0146 65.28a13.17 13.17 0 011.26 5.42v.1A7.36 7.36 0 0143 77.53l-19.7 9a44.66 44.66 0 00-20.62 19.39A22.18 22.18 0 000 116.51V129h128v-12.49a22.18 22.18 0 00-2.68-10.59z"
  />
</svg>
