<svg
	width="15"
	height="15"
	viewBox="0 0 15 15"
	fill="none"
	xmlns="http://www.w3.org/2000/svg"
>
	<path
		fill-rule="evenodd"
		clip-rule="evenodd"
		d="M6.06142 1.87988C4.70458 1.87988 3.58089 3.01152 3.58089 4.43713C3.58089 5.86274 4.70458 6.99438 6.06142 6.99438C7.41826 6.99438 8.54195 5.86274 8.54195 4.43713C8.54195 3.01152 7.41826 1.87988 6.06142 1.87988ZM2.45589 4.43713C2.45589 2.41677 4.05702 0.754883 6.06142 0.754883C8.06582 0.754883 9.66695 2.41677 9.66695 4.43713C9.66695 5.94648 8.77334 7.25576 7.48557 7.82152C9.74111 8.64093 11.2715 11.2919 11.2715 14.2502H10.1465C10.1465 11.0112 8.16747 8.68661 6.00609 8.68661C3.84471 8.68661 1.86572 11.0112 1.86572 14.2502H0.740723C0.740723 11.2649 2.29906 8.5927 4.58839 7.7996C3.32694 7.22246 2.45589 5.92731 2.45589 4.43713ZM11.9999 5.53141C11.9999 4.4901 11.059 3.56266 9.74994 3.56266V2.43766C11.5659 2.43766 13.1249 3.76021 13.1249 5.53141C13.1249 6.59712 12.5605 7.50041 11.7153 8.05092C13.2632 8.98243 14.2499 10.9783 14.2499 13.1252H13.1249C13.1249 10.5062 11.5076 8.62516 9.74994 8.62516V7.50016C11.059 7.50016 11.9999 6.57271 11.9999 5.53141Z"
		fill="#88898E"
	/>
</svg>
