<svg width="128" height="128" viewBox="0 0 128 128" xmlns="http://www.w3.org/2000/svg">
  <path fill-rule="evenodd" clip-rule="evenodd" d="M34.78 65.998C24.91 59.8 18.287 48.445 18.287 35.49 18.286 15.92 33.406 0 51.99 0c18.584 0 33.703 15.92 33.703 35.49 0 13.267-6.948 24.857-17.213 30.946 19.577 7.52 33.592 27.324 33.592 50.509 0 2.46-.17 4.989-.506 7.516-.274 2.054-1.945 3.539-3.86 3.539-.18 0-.362-.013-.546-.04-2.134-.315-3.622-2.392-3.322-4.639a48.52 48.52 0 00.431-6.376c0-25.102-19.394-45.525-43.233-45.525S7.803 91.843 7.803 116.945c0 2.08.145 4.225.432 6.376.299 2.247-1.189 4.324-3.323 4.639-2.132.31-4.106-1.252-4.405-3.499A57.262 57.262 0 010 116.945c0-23.651 14.585-43.783 34.78-50.947zM51.695 8.217c-14.282 0-25.901 12.235-25.901 27.274 0 15.039 11.62 27.274 25.901 27.274 14.282 0 25.901-12.235 25.901-27.274 0-15.04-11.62-27.274-25.901-27.274zM86.845 61.69c-1.821.25-3.285 1.833-3.395 3.838-.123 2.265 1.52 4.207 3.671 4.337 18.547 1.125 33.076 17.347 33.076 36.931 0 1.688-.118 3.432-.351 5.182-.298 2.247 1.189 4.324 3.322 4.639.184.026.367.04.547.04 1.915 0 3.585-1.485 3.859-3.539.283-2.126.426-4.253.426-6.322 0-18.983-11.171-35.38-27.105-42.039 8.03-5.393 13.297-14.875 13.297-25.414 0-14.306-9.657-26.719-22.963-29.514-2.11-.44-4.167 1-4.589 3.226-.422 2.225.95 4.389 3.063 4.832 9.669 2.031 16.686 11.055 16.686 21.456 0 10.858-7.686 20.173-17.878 21.67-.619.09-1.183.329-1.666.677z" />
</svg>
