<svg width="18" height="18" viewBox="0 0 18 18" fill="none" xmlns="http://www.w3.org/2000/svg">
  <path fill-rule="evenodd" clip-rule="evenodd" d="M7.56148 3.37988C6.20464 3.37988 5.08095 4.51152 5.08095 5.93713C5.08095 7.36274 6.20464 8.49438 7.56148 8.49438C8.91832 8.49438 10.042 7.36274 10.042 5.93713C10.042 4.51152 8.91832 3.37988 7.56148 3.37988ZM3.95595 5.93713C3.95595 3.91677 5.55708 2.25488 7.56148 2.25488C9.56588 2.25488 11.167 3.91677 11.167 5.93713C11.167 7.44648 10.2734 8.75576 8.98563 9.32152C11.2412 10.1409 12.7715 12.7919 12.7715 15.7502H11.6465C11.6465 12.5112 9.66754 10.1866 7.50615 10.1866C5.34477 10.1866 3.36578 12.5112 3.36578 15.7502H2.24078C2.24078 12.7649 3.79912 10.0927 6.08845 9.2996C4.827 8.72246 3.95595 7.42731 3.95595 5.93713ZM13.5 7.03141C13.5 5.9901 12.5591 5.06266 11.25 5.06266V3.93766C13.066 3.93766 14.625 5.26021 14.625 7.03141C14.625 8.09712 14.0606 9.00041 13.2154 9.55092C14.7632 10.4824 15.75 12.4783 15.75 14.6252H14.625C14.625 12.0062 13.0077 10.1252 11.25 10.1252V9.00016C12.5591 9.00016 13.5 8.07271 13.5 7.03141Z" fill="currentColor"/>
</svg>
