<svg width="27" height="28" viewBox="0 0 27 28" fill="none" xmlns="http://www.w3.org/2000/svg">
<path fill-rule="evenodd" clip-rule="evenodd" d="M13.514 0.594144C6.0641 0.572565 0.0117073 6.57147 0.000957082 13.9838C-0.0850449 21.0077 5.63409 27.3626 13.471 27.4058C20.8994 27.4382 26.9626 21.4177 26.9733 14.0485C26.9841 6.62541 20.9747 0.615723 13.514 0.594144ZM8.55816 12.4409C6.90262 12.3222 5.49433 11.157 5.06432 9.50618C5.34381 9.38751 5.62337 9.2688 5.9566 9.11776C6.49411 10.1859 7.13912 11.0491 8.4399 11.1246C8.4524 11.0619 8.46328 11.0024 8.47379 10.945C8.49042 10.8541 8.50616 10.7681 8.52591 10.6822C8.68716 9.95934 9.02042 9.63566 9.66543 9.61408C10.3534 9.58171 10.805 9.8946 10.977 10.488C11.1705 11.1677 10.9447 11.8043 10.3857 12.128C9.81593 12.4517 9.19242 12.4841 8.55816 12.4409ZM6.64469 21.5993C7.05536 20.7788 7.92706 20.0029 9.18271 19.4277C10.4292 18.8566 12.0028 18.5087 13.7265 18.5087C15.4503 18.5087 17.0238 18.8566 18.2703 19.4277C19.526 20.0029 20.3977 20.7788 20.8083 21.5993L22.0267 20.9896C21.433 19.8032 20.2708 18.8455 18.8378 18.189C17.3957 17.5284 15.626 17.1462 13.7265 17.1462C11.8271 17.1462 10.0573 17.5284 8.61524 18.189C7.18229 18.8455 6.02009 19.8032 5.42634 20.9896L6.64469 21.5993Z" fill="#828282"/>
</svg>
