<svg viewBox="0 0 170 170" xmlns="http://www.w3.org/2000/svg">
   <path d="M38.6936923,49.5148462 C40.6709231,52.9566923 43.1071538,55.6492308 45.9984615,57.5872308 C48.8923846,59.5278462 52.2413846,60.6093077 56.0480769,60.829 C55.61,59.9476154 55.3903077,58.9982308 55.3903077,57.9703846 C55.3903077,55.7028462 56.1226154,53.8537692 57.5885385,52.4244615 C59.0518462,50.9951538 60.9558462,50.2824615 63.2979231,50.2824615 C65.8623077,50.2824615 67.9114615,51.0513846 69.4506154,52.5892308 C70.9884615,54.1257692 71.7586923,56.0676923 71.7586923,58.4097692 C71.7586923,61.2683846 70.6026923,63.6274615 68.2985385,65.4948462 C65.9917692,67.3648462 62.7513077,68.2972308 58.5771538,68.2972308 C53.0835385,68.2972308 48.1587692,66.9084615 43.8015385,64.1243846 C39.4456154,61.3429231 35.9854615,57.4603846 33.4210769,52.4806923 L38.6936923,49.5148462 Z"></path>
   <path d="M41.8661538,104.706 C48.1273846,111.767538 54.8737692,116.901538 62.1079231,120.111923 C69.3394615,123.322308 77.4955385,124.811769 86.5722308,124.579 C95.6463077,124.343615 103.714769,122.438308 110.775,118.860462 C117.831308,115.28 124.307,109.806 130.196846,102.433231 L134.822154,107.140923 C129.223923,114.719 122.406923,120.777538 114.373769,125.311308 C106.336692,129.847692 97.1383846,132.246 86.7762308,132.511462 C76.4140769,132.779538 67.1046154,130.855923 58.8452308,126.741923 C50.5884615,122.629231 43.4693846,116.929 37.4893077,109.647769 L41.8661538,104.706 Z"></path>
</svg>
