<svg width="132" height="130" viewBox="132 130" xmlns="http://www.w3.org/2000/svg">
  <path d="M11 .568C29.286 18.876 47.571 37.04 66 55.49 84.286 37.041 102.429 18.734 121.143 0c3.286 3.974 5.714 6.954 8.286 10.076-17.572 17.457-36 35.623-54.572 53.93 19.572 19.16 38 37.326 57.143 56.201-4.143 3.123-7.286 5.393-10.857 8.09a266433.276 266433.276 0 00-54.286-54.356C47.571 93.384 29.143 111.834 11 130c-4-3.548-7-6.103-10-8.799 18.857-18.734 37.143-37.042 55.286-55.207C37.429 47.26 19 28.951 0 9.933L11 .569z" />
</svg>
