<svg width="24" height="24" viewBox="0 0 24 24" fill="none" xmlns="http://www.w3.org/2000/svg">
<path fill-rule="evenodd" clip-rule="evenodd" d="M12 24C18.6274 24 24 18.6274 24 12C24 5.37258 18.6274 0 12 0C5.37258 0 0 5.37258 0 12C0 18.6274 5.37258 24 12 24ZM18.6978 8.55972C18.5378 7.9451 18.0667 7.4589 17.4623 7.29378C16.369 7.00023 11.9959 7.00023 11.9959 7.00023C11.9959 7.00023 7.70273 6.98188 6.60945 7.27543C6.00503 7.44055 5.42728 7.9451 5.26729 8.55972C4.97397 9.67889 5.00063 11.9998 5.00063 11.9998C5.00063 11.9998 4.97397 14.3207 5.26729 15.4399C5.42728 16.0545 6.01392 16.559 6.60945 16.7241C7.70273 17.0269 11.9959 16.9993 11.9959 16.9993C11.9959 16.9993 16.289 17.0177 17.3823 16.7241C17.9867 16.559 18.5467 16.0545 18.7067 15.4399C19 14.3299 19 11.9998 19 11.9998C19 11.9998 18.9911 9.67889 18.6978 8.55972ZM11 14L14 12L11 10V14Z" fill="#6D6D6D"/>
</svg>
