<svg version="1.1" id="Layer_1" xmlns="http://www.w3.org/2000/svg" xmlns:xlink="http://www.w3.org/1999/xlink" x="0px" y="0px" viewBox="0 0 101 30" xml:space="preserve">
<g>
	<defs>
		<rect id="SVGID_1_" width="101" height="30"></rect>
	</defs>
	<clipPath id="SVGID_2_">
		<use xlink:href="#SVGID_1_" overflow="visible"></use>
	</clipPath>
	<g clip-path="url(#SVGID_2_)">
		<defs>
			<rect id="SVGID_3_" y="0" width="100" height="30"></rect>
		</defs>
		<clipPath id="SVGID_4_">
			<use xlink:href="#SVGID_3_" overflow="visible"></use>
		</clipPath>
		<path clip-path="url(#SVGID_4_)" fill="#b1999e" d="M33.944,19.909c-1.02,0-1.991,0.488-2.912,1.464v-1.258h-1.284v7.93
			c0,0.355,0.288,0.643,0.642,0.643s0.642-0.287,0.642-0.643v-5.561c0.899-0.977,1.741-1.464,2.525-1.464
			c0.521,0,0.904,0.171,1.148,0.514s0.366,0.895,0.366,1.657v5.496h1.283v-5.866C36.354,20.879,35.551,19.909,33.944,19.909"></path>
		<path clip-path="url(#SVGID_4_)" fill="#b1999e" d="M9.538,19.909c-1.02,0-1.991,0.488-2.912,1.464L6.46,21.569
			c-0.298-1.106-1.052-1.66-2.265-1.66c-1.02,0-1.991,0.488-2.912,1.465v-1.259H0v7.93c0,0.355,0.288,0.643,0.642,0.643
			s0.642-0.287,0.642-0.643v-5.561c0.899-0.977,1.741-1.464,2.525-1.464c0.521,0,0.904,0.171,1.148,0.514s0.366,0.895,0.366,1.658
			v5.495h1.283h0.02v-6.203c0.899-0.977,1.741-1.464,2.525-1.464c0.521,0,0.904,0.171,1.148,0.514
			c0.244,0.343,0.366,0.895,0.366,1.657v5.496h1.283v-5.866C11.948,20.879,11.145,19.909,9.538,19.909"></path>
		<path clip-path="url(#SVGID_4_)" fill="#b1999e" d="M63.268,27.576h-1.666V17.079H58.08v1.11h2.238v10.498h2.949
			c0.307,0,0.555-0.249,0.555-0.556S63.574,27.576,63.268,27.576"></path>
		<path clip-path="url(#SVGID_4_)" fill="#b1999e" d="M86.27,24.355c-0.355-0.222-0.816-0.413-1.382-0.572l-1.226-0.354
			c-0.56-0.159-0.933-0.33-1.119-0.514s-0.279-0.399-0.279-0.646c0-0.39,0.203-0.701,0.608-0.934
			c0.405-0.233,0.957-0.351,1.653-0.351c0.479,0,0.981,0.067,1.506,0.201c0.293,0.074,0.593-0.095,0.671-0.387
			c0.079-0.3-0.105-0.609-0.408-0.678c-0.63-0.143-1.214-0.215-1.752-0.215c-1.069,0-1.928,0.218-2.575,0.65
			c-0.647,0.435-0.97,1.021-0.97,1.761c0,0.341,0.069,0.647,0.21,0.921c0.139,0.275,0.344,0.511,0.611,0.708
			c0.27,0.197,0.561,0.348,0.872,0.448c0.313,0.103,0.801,0.254,1.465,0.457c0.822,0.252,1.346,0.495,1.567,0.729
			c0.222,0.232,0.333,0.497,0.333,0.794c0,0.438-0.223,0.791-0.67,1.057s-1.027,0.399-1.74,0.399c-0.823,0-1.594-0.17-2.312-0.511
			l-0.247,1.11c0.686,0.318,1.555,0.477,2.607,0.477c1.06,0,1.932-0.236,2.616-0.711c0.687-0.475,1.028-1.119,1.028-1.938
			c0-0.416-0.089-0.782-0.268-1.098C86.894,24.846,86.626,24.578,86.27,24.355"></path>
		<path clip-path="url(#SVGID_4_)" fill="#b1999e" d="M99.681,27.885c-0.065-0.29-0.366-0.471-0.647-0.375
			c-0.517,0.176-1.038,0.263-1.563,0.263c-0.396,0-0.707-0.144-0.938-0.431c-0.229-0.288-0.345-0.693-0.345-1.214v-4.903h2.912
			v-1.111h-2.912V17.77h-1.251v2.344H93.29v1.111h1.646v5.24c0,1.617,0.765,2.427,2.296,2.427c0.7,0,1.411-0.139,2.131-0.418
			C99.6,28.382,99.735,28.132,99.681,27.885"></path>
		<path clip-path="url(#SVGID_4_)" fill="#b1999e" d="M51.457,20.115h-1.638l-4.022,3.62v-6.656h-1.172h-0.111h-2.126v1.11h2.126
			v9.855c0,0.354,0.287,0.642,0.641,0.642c0.355,0,0.642-0.287,0.642-0.642v-2.896l0.839-0.724l3.636,4.261h1.688l-4.41-5.066
			L51.457,20.115z"></path>
		<path clip-path="url(#SVGID_4_)" fill="#b1999e" d="M17.733,21.225h2.526v6.82c0,0.354,0.287,0.642,0.641,0.642
			c0.355,0,0.642-0.288,0.642-0.642v-7.932h-3.809V21.225z"></path>
		<path clip-path="url(#SVGID_4_)" fill="#b1999e" d="M21.864,17.51c0,0.535-0.434,0.97-0.97,0.97c-0.535,0-0.97-0.435-0.97-0.97
			c0-0.536,0.435-0.971,0.97-0.971C21.43,16.54,21.864,16.974,21.864,17.51"></path>
		<path clip-path="url(#SVGID_4_)" fill="#b1999e" d="M69.92,21.225h2.526v6.82c0,0.354,0.287,0.642,0.641,0.642
			c0.355,0,0.643-0.288,0.643-0.642v-7.932h-3.81V21.225z"></path>
		<path clip-path="url(#SVGID_4_)" fill="#b1999e" d="M74.078,17.51c0,0.535-0.434,0.97-0.97,0.97c-0.535,0-0.971-0.435-0.971-0.97
			c0-0.536,0.436-0.971,0.971-0.971C73.645,16.54,74.078,16.974,74.078,17.51"></path>
		
	</g>
</g>
</svg>